<svg id="Capa_1" enable-background="new 0 0 512 512" height="512" viewBox="0 0 512 512" width="512" xmlns="http://www.w3.org/2000/svg" fill="white"><g><path d="m442.028 131.651c-.657 0-1.313.009-1.971.028-16.206-32.449-49.575-53.529-86.429-53.529-4.089 0-8.172.259-12.22.775-25.022-48.322-74.686-78.925-129.705-78.925-75.613 0-137.999 57.861-145.425 131.748-36.873 1.931-66.278 32.608-66.278 70.041 0 38.674 31.389 70.138 69.972 70.138h372.056c38.583 0 69.972-31.464 69.972-70.138s-31.389-70.138-69.972-70.138z"/><path d="m259.452 385.003c20.428 0 39.634-7.978 54.075-22.462 5.849-5.867 5.835-15.364-.032-21.213s-15.365-5.835-21.213.032c-8.771 8.798-20.431 13.644-32.83 13.644s-24.058-4.845-32.829-13.643c-5.85-5.867-15.347-5.881-21.213-.032-5.867 5.849-5.881 15.346-.032 21.213 14.44 14.483 33.644 22.461 54.074 22.461z"/><path d="m162.936 383.929c-5.867 5.849-5.881 15.347-.032 21.213 25.787 25.863 60.075 40.107 96.548 40.107s70.761-14.244 96.547-40.107c5.849-5.867 5.835-15.364-.032-21.213-5.867-5.85-15.365-5.835-21.213.032-20.116 20.177-46.859 31.289-75.302 31.289s-55.186-11.112-75.303-31.289c-5.85-5.868-15.347-5.881-21.213-.032z"/><path d="m381.813 431.16c-32.687 32.785-76.142 50.84-122.361 50.84s-89.674-18.056-122.36-50.84c-5.85-5.868-15.347-5.881-21.213-.032-5.867 5.849-5.881 15.347-.032 21.213 38.355 38.472 89.355 59.659 143.604 59.659 54.246 0 105.252-21.189 143.606-59.658 5.849-5.867 5.835-15.364-.032-21.213-5.866-5.85-15.364-5.836-21.212.031z"/></g></svg>