<svg id="Layer_1" enable-background="new 0 0 512 512" height="512" viewBox="0 0 512 512" width="512" xmlns="http://www.w3.org/2000/svg" fill="white"><path d="m256 0c-141.385 0-256 114.615-256 256s114.615 256 256 256 256-114.615 256-256-114.615-256-256-256zm-84.687 379.313c-6.247 6.248-16.379 6.249-22.627 0-6.249-6.248-6.249-16.379 0-22.627l84.687-84.686h-6.628c-8.837 0-16-7.164-16-16s7.163-16 16-16c48.088 0 46.914-.387 50.654.954 2.671.956 5.133 2.661 6.976 4.907 4.858 5.919 3.625 7.138 3.625 55.394 0 8.836-7.163 16-16 16s-16-7.164-16-16v-6.628zm228.687-35.313c0 26.467-21.532 48-48 48h-80c-8.837 0-16-7.164-16-16s7.163-16 16-16h80c8.822 0 16-7.178 16-16v-176c0-8.822-7.178-16-16-16h-176c-8.822 0-16 7.178-16 16v80c0 8.836-7.163 16-16 16s-16-7.164-16-16v-80c0-26.467 21.532-48 48-48h176c26.468 0 48 21.533 48 48z"/></svg>