<?xml version="1.0" encoding="iso-8859-1"?>
<!-- Generator: Adobe Illustrator 17.1.0, SVG Export Plug-In . SVG Version: 6.00 Build 0)  -->
<!DOCTYPE svg PUBLIC "-//W3C//DTD SVG 1.1//EN" "http://www.w3.org/Graphics/SVG/1.1/DTD/svg11.dtd">
<svg version="1.1" id="Capa_1" xmlns="http://www.w3.org/2000/svg" xmlns:xlink="http://www.w3.org/1999/xlink" x="0px" y="0px"
	 viewBox="0 0 362.001 362.001" style="enable-background:new 0 0 362.001 362.001;" xml:space="preserve" fill="white">
<path d="M181,0C81.197,0,0,81.196,0,181c0,99.805,81.196,181.001,181,181.001S362,280.805,362,181C362,81.196,280.804,0,181,0z
	 M304.8,199.286c-2.836,5.063-7.837,8.345-13.375,8.776c-0.416,0.032-0.832,0.048-1.246,0.048c-5.101,0-10.01-2.428-13.325-6.65
	l-23.205-29.549c-4.702-5.987-3.659-14.652,2.327-19.353c4.833-3.795,11.411-3.843,16.241-0.571
	c-12.396-39.903-49.662-68.961-93.589-68.961c-54.024,0-97.975,43.951-97.975,97.974s43.952,97.975,97.975,97.975
	c23.598,0,46.394-8.508,64.189-23.955c5.749-4.992,14.454-4.374,19.444,1.373c4.99,5.748,4.375,14.453-1.373,19.444
	c-22.809,19.8-52.022,30.704-82.26,30.704c-69.224,0-125.542-56.318-125.542-125.542S109.403,55.459,178.626,55.459
	c58.879,0,108.412,40.747,121.904,95.52c4.162-5.03,11.439-6.537,17.339-3.233c6.641,3.719,9.01,12.119,5.29,18.761L304.8,199.286z
	 M212.08,166.566c7.612,0,13.783,6.388,13.783,14c0,7.612-6.171,14-13.783,14h-29.058c-10.384,0-19.022-8.258-19.022-18.184v-44.589
	c0-7.612,6.388-13.783,14-13.783s14,6.171,14,13.783v34.773H212.08z"/>
<g>
</g>
<g>
</g>
<g>
</g>
<g>
</g>
<g>
</g>
<g>
</g>
<g>
</g>
<g>
</g>
<g>
</g>
<g>
</g>
<g>
</g>
<g>
</g>
<g>
</g>
<g>
</g>
<g>
</g>
</svg>
